<?xml version="1.0" standalone="no"?>
<svg viewBox="0 0 200 200" xmlns="http://www.w3.org/2000/svg">
  <path fill="#0F62FE" d="M30.1,-55.1C39.5,-46.6,48,-39.6,53.2,-30.7C58.4,-21.8,60.3,-10.9,60.7,0.2C61.1,11.4,60.2,22.8,56.5,34.4C52.9,46,46.6,57.8,36.7,60.6C26.8,63.4,13.4,57.2,0.2,56.8C-12.9,56.4,-25.9,61.8,-33.3,57.6C-40.7,53.3,-42.5,39.5,-50.7,28.3C-58.9,17.1,-73.4,8.6,-79.6,-3.6C-85.9,-15.8,-84,-31.6,-75,-41.3C-65.9,-51,-49.7,-54.5,-36.1,-60.6C-22.4,-66.6,-11.2,-75.2,-0.4,-74.4C10.3,-73.7,20.6,-63.6,30.1,-55.1Z" transform="translate(100 100)" />
</svg>
